<svg id="Capa_1" data-name="Capa 1" xmlns="http://www.w3.org/2000/svg" viewBox="0 0 1920 1080"><defs><style>.cls-1{fill:#cbd5e1;}.cls-2{fill:#64748b;}</style></defs><rect class="cls-1" width="1920" height="1080"/><circle class="cls-2" cx="960" cy="527.44" r="174.38"/><circle class="cls-1" cx="960" cy="527.44" r="144.26"/><path class="cls-2" d="M947.2,626.07a6.2,6.2,0,0,1-4.77-1.91,6.51,6.51,0,0,1-1.77-4.63V594.19a6.88,6.88,0,0,1,1.77-4.9,6.2,6.2,0,0,1,4.77-1.91h25.33a6.53,6.53,0,0,1,6.81,6.81v25.34a6.29,6.29,0,0,1-1.9,4.63,6.67,6.67,0,0,1-4.91,1.91Zm1.63-52.86a6.51,6.51,0,0,1-4.63-1.77,6.18,6.18,0,0,1-1.91-4.76V441.9a6.5,6.5,0,0,1,6.54-6.54H970.9a6.26,6.26,0,0,1,4.77,1.9,6.59,6.59,0,0,1,1.77,4.64V566.68a6.1,6.1,0,0,1-6.54,6.53Z"/></svg>