<svg width="410" height="73" viewBox="0 0 410 73" fill="none" xmlns="http://www.w3.org/2000/svg">
<path d="M32.9607 29.6718C32.2878 29.4017 31.5605 29.2936 30.8149 29.3116C30.3421 29.3116 29.9239 29.3116 29.5784 29.3296C29.2147 29.3116 28.9601 29.3296 28.8328 29.3476V35.3984C29.0874 35.4164 29.3238 35.4344 29.542 35.4344H30.5058C31.215 35.4344 31.9242 35.3264 32.597 35.1103C33.1789 34.9482 33.688 34.606 34.0881 34.1558C34.47 33.7056 34.6518 33.0934 34.6518 32.301C34.67 31.7427 34.5245 31.1845 34.2336 30.6983C33.9304 30.2307 33.4844 29.8711 32.9607 29.6718ZM50.9631 15.0491H22.7774C18.5041 15.0491 15.0491 18.4707 15.0491 22.7026V49.5331C15.0491 53.765 18.5041 57.1866 22.7774 57.1866H50.9631C55.2365 57.1866 58.6915 53.765 58.6915 49.5331V22.7026C58.6915 18.4707 55.2365 15.0491 50.9631 15.0491ZM37.5231 36.0287C36.7976 37.0372 35.7792 37.7935 34.5972 38.2257C33.3607 38.6759 31.9969 38.838 30.5058 38.838C30.0694 38.838 29.7784 38.838 29.5966 38.82C29.4147 38.802 29.1601 38.802 28.8146 38.802V44.5808C28.8328 44.7069 28.7419 44.8167 28.6146 44.8347H25.0868C24.9414 44.8347 24.8686 44.7609 24.8686 44.5988V26.0701C24.8686 25.9441 24.9232 25.8721 25.0505 25.8721C25.3596 25.8721 25.6506 25.8721 26.0688 25.854C26.5052 25.836 26.9598 25.836 27.4508 25.818C27.9418 25.8 28.4691 25.8 29.0328 25.782C29.5966 25.764 30.1421 25.764 30.6876 25.764C32.1787 25.764 33.4153 25.9441 34.4336 26.3223C35.3428 26.6284 36.1793 27.1326 36.8703 27.7989C37.4522 28.3752 37.9068 29.0775 38.1977 29.8519C38.4687 30.6082 38.6142 31.3826 38.6142 32.1929C38.616 33.7417 38.2523 35.0202 37.5231 36.0287ZM50.4176 43.0339C49.9085 43.7542 49.1974 44.3107 48.381 44.6384C47.4899 45.0148 46.3989 45.2111 45.0878 45.2111C44.2531 45.2111 43.433 45.1409 42.6165 44.9788C41.9801 44.8689 41.3436 44.6727 40.7617 44.4025C40.6344 44.3323 40.5417 44.2062 40.5599 44.0622V40.9287C40.5599 40.8765 40.5799 40.8027 40.6344 40.7667C40.6872 40.7307 40.7436 40.7487 40.7981 40.7847C41.5073 41.1989 42.2529 41.4888 43.053 41.6671C43.7421 41.8472 44.4695 41.9372 45.1987 41.9372C45.8897 41.9372 46.3807 41.8454 46.708 41.6833C46.999 41.5572 47.199 41.2511 47.199 40.9269C47.199 40.673 47.0535 40.4407 46.7626 40.2066C46.4716 39.9743 45.8734 39.7042 44.9823 39.3584C44.0549 39.0343 43.2021 38.6021 42.4001 38.0636C41.8311 37.66 41.3587 37.1375 41.0163 36.5329C40.7273 35.9632 40.5843 35.3317 40.5999 34.6943C40.5999 33.9199 40.8181 33.1816 41.22 32.5153C41.6746 31.795 42.3456 31.2187 43.1275 30.8585C43.9804 30.4281 45.0532 30.23 46.3443 30.23C47.0899 30.23 47.8536 30.2841 48.5992 30.3921C49.1447 30.4642 49.6721 30.6082 50.163 30.8063C50.234 30.8243 50.3085 30.8964 50.3449 30.9684C50.3631 31.0404 50.3812 31.1125 50.3812 31.1845V34.1198C50.3812 34.1919 50.3449 34.2639 50.2903 34.2999C50.1267 34.3359 50.0357 34.3359 49.963 34.2999C49.4175 34.0118 48.8356 33.8137 48.2173 33.6876C47.5445 33.5436 46.8717 33.4535 46.1807 33.4535C45.817 33.4355 45.4351 33.4895 45.0878 33.5796C44.8532 33.6336 44.6514 33.7597 44.5241 33.9397C44.4332 34.0838 44.3786 34.2639 44.3786 34.426C44.3786 34.588 44.4513 34.7501 44.5623 34.8942C44.7259 35.0923 44.9423 35.2543 45.1805 35.3804C45.5969 35.5965 46.0352 35.7946 46.4698 35.9747C47.4536 36.2988 48.3992 36.749 49.272 37.2893C49.8721 37.6656 50.3631 38.1717 50.7067 38.784C50.9977 39.3566 51.1432 39.9905 51.125 40.637C51.145 41.4852 50.8904 42.3298 50.4176 43.0339Z" fill="white"/>
<path d="M92.2284 33.8309C92.0528 33.2727 91.8948 32.7324 91.7192 32.1742C91.5437 31.616 91.3857 31.0938 91.2452 30.5715C91.1047 30.0673 90.9818 29.5991 90.8589 29.167H90.8238C90.6658 29.9413 90.4727 30.7156 90.2269 31.4899C89.9635 32.3543 89.7002 33.2547 89.4192 34.155C89.1734 35.0734 88.9101 35.9198 88.6467 36.6761H93.1063C93.0009 36.2961 92.8605 35.8477 92.7025 35.3777C92.5444 34.8933 92.3864 34.3711 92.2284 33.8309V33.8309ZM108.416 15.0491H81.2024C77.0765 15.0491 73.7406 18.4705 73.7406 22.7023V49.5334C73.7406 53.7652 77.0765 57.1866 81.2024 57.1866H108.416C112.542 57.1866 115.878 53.7652 115.878 49.5334V22.7023C115.878 18.4705 112.542 15.0491 108.416 15.0491ZM99.5498 44.8154H95.8786C95.7574 44.8335 95.6345 44.7434 95.5994 44.6174L94.1597 40.3316H87.6284L86.2941 44.5633C86.2589 44.7254 86.1185 44.8335 85.9605 44.8172H82.6597C82.4666 44.8172 82.4139 44.7074 82.4666 44.4931L88.12 27.7984C88.1727 27.6183 88.2254 27.4202 88.2956 27.2041C88.3658 26.826 88.4009 26.4298 88.4009 26.0337C88.3834 25.9436 88.4536 25.8536 88.5414 25.8356H93.0887C93.2292 25.8356 93.2994 25.8896 93.317 25.9796L99.7254 44.5273C99.778 44.7236 99.7254 44.8154 99.5498 44.8154V44.8154ZM105.519 44.5453C105.519 44.7434 105.451 44.8335 105.293 44.8335H101.85C101.674 44.8335 101.586 44.7236 101.586 44.5453V30.6796C101.586 30.4995 101.658 30.4275 101.816 30.4275H105.293C105.451 30.4275 105.519 30.5175 105.519 30.6796V44.5453V44.5453ZM105.152 28.2846C104.945 28.5006 104.695 28.6686 104.419 28.7773C104.143 28.886 103.848 28.9329 103.553 28.9149C102.973 28.9329 102.412 28.6988 101.989 28.2846C101.586 27.8335 101.372 27.2389 101.392 26.6279C101.374 26.0157 101.602 25.4394 102.022 25.0252C102.447 24.6111 103.009 24.395 103.588 24.395C104.274 24.395 104.798 24.6111 105.186 25.0252C105.572 25.4574 105.783 26.0337 105.765 26.6279C105.783 27.2402 105.572 27.8344 105.152 28.2846V28.2846Z" fill="white"/>
<path d="M130.927 15.0491L134.176 52.8614L148.984 57.1866L163.732 52.8614L167.045 15.0491H130.927ZM160.217 24.0185L159.981 26.409L159.897 27.3966H142.599L143.003 32.1675H159.499L159.336 33.3982L158.292 45.6646L158.209 46.4851L149.003 49.0984V49.1136H148.944L148.929 49.1187V49.1136H148.925L139.64 46.48L139.079 39.1566H143.564L143.884 42.8639L148.925 44.2668H148.944L153.965 42.869L154.527 36.8623H148.929V36.8573H138.843L137.72 24.0185L137.637 22.7878H160.296L160.217 24.0185V24.0185Z" fill="white"/>
<path d="M182.094 15.0491H218.212L214.927 52.9081L200.115 57.1866L185.383 52.9058L182.094 15.0491ZM211.488 22.7961L188.82 22.7914L189.186 27.3933L206.601 27.398L206.163 32.1676H194.742L195.156 36.6845H205.789L205.16 42.8708L200.154 44.2828L195.072 42.859L194.746 39.1543H190.259L190.759 45.9238L200.154 48.9107L209.395 46.226L211.488 22.7961V22.7961Z" fill="white"/>
<path fill-rule="evenodd" clip-rule="evenodd" d="M233.261 15.0491H275.399V57.1866H233.261V15.0491ZM265.473 50.3744C263.519 50.3744 262.415 49.356 261.567 47.969L258.349 49.8389C259.511 52.1354 261.886 53.8876 265.565 53.8876C269.325 53.8876 272.126 51.9352 272.126 48.3693C272.126 45.0633 270.226 43.5937 266.862 42.1488L265.872 41.7256C264.172 40.9882 263.437 40.5089 263.437 39.3203C263.437 38.3599 264.174 37.6243 265.333 37.6243C266.469 37.6243 267.201 38.1036 267.88 39.3203L270.964 37.3416C269.659 35.0468 267.851 34.1707 265.333 34.1707C261.797 34.1707 259.534 36.4321 259.534 39.4028C259.534 42.6246 261.43 44.1503 264.288 45.367L265.279 45.7919C267.085 46.582 268.161 47.0631 268.161 48.4202C268.161 49.5544 267.113 50.3744 265.473 50.3744V50.3744ZM250.128 50.348C248.768 50.348 248.201 49.4175 247.579 48.3114L244.355 50.2637C245.29 52.2407 247.126 53.8805 250.295 53.8805C253.805 53.8805 256.208 52.0142 256.208 47.9146V34.3955H252.249V47.8619C252.249 49.8406 251.428 50.348 250.127 50.348H250.128Z" fill="white"/>
<path d="M337.764 36.1228C337.764 32.988 333.839 30.0169 327.82 28.1755C329.21 22.0421 328.593 17.1606 325.872 15.5972C325.213 15.228 324.467 15.0421 323.711 15.059V17.2079C324.155 17.2079 324.512 17.2966 324.811 17.4603C326.122 18.2134 326.692 21.0761 326.249 24.7609C326.142 25.6678 325.969 26.622 325.756 27.5959C323.74 27.1102 321.694 26.7591 319.632 26.5451C318.404 24.8501 317.063 23.2391 315.62 21.7227C318.765 18.8009 321.716 17.2 323.723 17.2V15.0491C321.069 15.0491 317.598 16.9398 314.086 20.2185C310.577 16.9615 307.103 15.0885 304.451 15.0885V17.2375C306.449 17.2375 309.41 18.8305 312.554 21.7326C311.204 23.1521 309.853 24.7609 308.57 26.5451C306.503 26.7568 304.454 27.1112 302.436 27.6058C302.214 26.6417 302.05 25.7072 301.934 24.8101C301.48 21.1234 302.04 18.2607 303.343 17.4997C303.631 17.3262 304.008 17.2474 304.451 17.2474V15.0984C303.643 15.0984 302.908 15.2719 302.273 15.6366C299.562 17.2 298.955 22.0697 300.353 28.1854C294.353 30.0386 290.448 32.9979 290.448 36.1228C290.448 39.2575 294.373 42.2286 300.392 44.068C299.002 50.2034 299.619 55.0849 302.34 56.6464C302.967 57.0131 303.7 57.1866 304.509 57.1866C307.162 57.1866 310.634 55.2959 314.145 52.0172C317.655 55.2762 321.127 57.1472 323.78 57.1472C324.541 57.1632 325.293 56.9768 325.959 56.607C328.67 55.0455 329.277 50.1758 327.879 44.0601C333.859 42.2187 337.764 39.2476 337.764 36.1228ZM325.206 29.6897C324.831 30.9788 324.397 32.2498 323.904 33.4987C323.098 31.9308 322.213 30.4049 321.253 28.9267C322.623 29.1298 323.944 29.3801 325.208 29.6897H325.206ZM320.789 39.9613C320.038 41.2625 319.265 42.4987 318.465 43.6461C315.571 43.9012 312.661 43.9045 309.767 43.656C308.107 41.2846 306.655 38.774 305.427 36.1523C306.653 33.5245 308.098 31.0051 309.749 28.6211C312.642 28.3655 315.552 28.3616 318.445 28.6093C319.246 29.7567 320.028 30.983 320.78 32.2763C321.513 33.5381 322.179 34.8196 322.787 36.1129C322.173 37.4219 321.506 38.7058 320.789 39.9613V39.9613ZM323.904 38.7074C324.425 39.9988 324.871 41.2921 325.235 42.546C323.973 42.8555 322.641 43.1158 321.263 43.3169C322.219 41.8253 323.101 40.2869 323.904 38.7074V38.7074ZM314.126 48.9988C313.229 48.0722 312.332 47.0411 311.444 45.9114C312.312 45.9508 313.199 45.9804 314.096 45.9804C315.003 45.9804 315.9 45.9607 316.777 45.9114C315.91 47.0411 315.013 48.0722 314.126 48.9988ZM306.949 43.3169C305.62 43.1243 304.3 42.8703 302.994 42.5559C303.351 41.3118 303.795 40.0284 304.296 38.7469C304.692 39.5158 305.108 40.2886 305.561 41.0615C306.015 41.8323 306.476 42.5854 306.949 43.3169ZM314.076 23.2467C314.973 24.1733 315.87 25.2044 316.758 26.3341C315.89 26.2947 315.003 26.2651 314.106 26.2651C313.199 26.2651 312.302 26.2848 311.425 26.3341C312.292 25.2044 313.189 24.1733 314.076 23.2467ZM306.939 28.9287C305.983 30.417 305.101 31.9521 304.298 33.5282C303.791 32.2713 303.347 30.9902 302.967 29.6897C304.229 29.39 305.561 29.1298 306.939 28.9287ZM298.212 41.0023C294.797 39.5473 292.589 37.6369 292.589 36.1228C292.589 34.6086 294.797 32.6884 298.212 31.2432C299.04 30.8864 299.946 30.567 300.883 30.2693C301.433 32.158 302.157 34.1256 303.052 36.1425C302.207 38.0395 301.492 39.9919 300.913 41.9861C299.997 41.7025 299.095 41.3742 298.212 41.0023V41.0023ZM303.401 54.7833C302.09 54.0341 301.52 51.1675 301.963 47.4847C302.07 46.5778 302.243 45.6216 302.456 44.6477C304.345 45.111 306.409 45.4678 308.58 45.7005C309.808 47.3954 311.149 49.0064 312.592 50.5228C309.447 53.4446 306.496 55.0455 304.489 55.0455C304.11 55.0496 303.736 54.9602 303.401 54.7853V54.7833ZM326.278 47.4354C326.732 51.1202 326.172 53.9848 324.869 54.7458C324.581 54.9193 324.204 54.9962 323.761 54.9962C321.763 54.9962 318.802 53.4052 315.658 50.5011C317.008 49.0856 318.359 47.4748 319.642 45.6906C321.709 45.4789 323.758 45.1245 325.775 44.6299C325.998 45.6039 326.17 46.5384 326.278 47.4354V47.4354ZM329.991 41.0023C329.163 41.3592 328.256 41.6785 327.319 41.9762C326.73 39.9718 326.005 38.0096 325.15 36.1031C326.038 34.098 326.749 32.1403 327.29 30.2594C328.246 30.5571 329.151 30.8864 330 31.2432C333.415 32.6982 335.623 34.6086 335.623 36.1228C335.613 37.6369 333.405 39.5572 329.991 41.0023V41.0023Z" fill="white"/>
<path d="M314.096 40.5311C315.265 40.5311 316.387 40.0666 317.213 39.2399C318.04 38.4132 318.504 37.2919 318.504 36.1228C318.504 34.9536 318.04 33.8323 317.213 33.0056C316.387 32.1789 315.265 31.7144 314.096 31.7144C312.927 31.7144 311.806 32.1789 310.979 33.0056C310.152 33.8323 309.688 34.9536 309.688 36.1228C309.688 37.2919 310.152 38.4132 310.979 39.2399C311.806 40.0666 312.927 40.5311 314.096 40.5311V40.5311Z" fill="white"/>
<path d="M372.502 15.0599C372.411 15.0686 372.123 15.0985 371.863 15.1178C365.88 15.6586 360.275 18.8873 356.722 23.8508C354.759 26.5752 353.484 29.7331 353.003 33.0561C352.834 34.2148 352.813 34.5555 352.813 36.1251C352.813 37.6947 352.834 38.0371 353.003 39.1941C354.148 47.1072 359.78 53.7544 367.416 56.2176C368.784 56.6583 370.225 56.9586 371.863 57.1412C372.502 57.2114 375.262 57.2114 375.901 57.1412C378.73 56.8269 381.128 56.1263 383.491 54.9202C383.855 54.7358 383.925 54.6849 383.876 54.6445C383.841 54.6199 382.297 52.5482 380.443 50.0445L377.074 45.4919L372.853 39.2433C371.449 37.1532 370.031 35.0721 368.601 32.9999C368.585 32.9946 368.569 35.7704 368.561 39.1625C368.548 45.0969 368.543 45.3356 368.469 45.4761C368.397 45.64 368.269 45.7727 368.108 45.8501C367.976 45.9168 367.862 45.9291 367.238 45.9291H366.526L366.336 45.8097C366.219 45.7356 366.123 45.6313 366.06 45.5077L365.973 45.3233L365.981 37.0644L365.994 28.8019L366.122 28.6404C366.208 28.5394 366.312 28.4544 366.427 28.3893C366.596 28.3068 366.661 28.2998 367.375 28.2998C368.215 28.2998 368.355 28.3314 368.573 28.5702C368.634 28.6369 370.92 32.0816 373.656 36.2287L381.967 48.8208L385.303 53.8737L385.473 53.7631C387.079 52.6958 388.534 51.4186 389.801 49.9655C392.456 46.9268 394.178 43.1869 394.761 39.1941C394.93 38.0353 394.951 37.6947 394.951 36.1251C394.951 34.5555 394.93 34.2148 394.761 33.0561C393.617 25.1448 387.984 18.4958 380.349 16.0325C378.921 15.5788 377.452 15.2711 375.963 15.1143C375.566 15.0721 372.845 15.0265 372.504 15.0616L372.502 15.0599ZM381.128 27.8064C381.226 27.8558 381.313 27.924 381.385 28.0071C381.456 28.0903 381.51 28.1868 381.544 28.291C381.576 28.3964 381.585 30.6876 381.576 35.8494L381.563 43.2551L380.259 41.2536L378.949 39.252V33.869C378.949 30.3874 378.965 28.4315 378.99 28.3367C379.019 28.227 379.07 28.1244 379.14 28.0351C379.21 27.9458 379.297 27.8716 379.397 27.817C379.567 27.7292 379.629 27.7222 380.275 27.7222C380.884 27.7222 380.991 27.7309 381.128 27.8047V27.8064Z" fill="white"/>
</svg>
